Coordinates
version=1
nRows=32
nColumns=12
inDegrees=yes

Units are S.I. units (second, meters, Newtons, ...)
Angles are in degrees

endheader
time	SC_y	SC_z	SC_x	AC_y	AC_z	AC_x	GH_y	GH_z	GH_yy	EL_x	PS_y
       0.0              -37.97          16.99          77.44          56.74         -19.69         -10.74          14.32          35.45          20.65          27.89          156.1
   0.01852              -37.97          16.99          77.44          56.74         -19.69         -10.73           14.3          35.45          20.64           27.9          156.1
   0.03704              -37.97          16.99          77.43          56.74         -19.68         -10.73          14.29          35.45          20.64          27.92          156.1
   0.05557              -37.97          16.99          77.43          56.74         -19.68         -10.73          14.27          35.44          20.63          27.94          156.1
   0.07409              -37.97          16.98          77.42          56.73         -19.68         -10.72          14.26          35.44          20.62          27.95          156.1
   0.09261              -37.97          16.98          77.41          56.73         -19.67         -10.72          14.24          35.44          20.61          27.97          156.1
    0.1111              -37.97          16.98          77.41          56.73         -19.67         -10.72          14.22          35.44          20.61          27.99          156.1
    0.1297              -37.97          16.97           77.4          56.73         -19.66         -10.71           14.2          35.43           20.6          28.01          156.1
    0.1482              -37.97          16.97          77.39          56.72         -19.66         -10.71          14.18          35.43          20.59          28.03          156.0
    0.1667              -37.97          16.96          77.38          56.72         -19.65          -10.7          14.16          35.43          20.58          28.06          156.0
    0.1852              -37.97          16.96          77.37          56.72         -19.65          -10.7          14.13          35.42          20.56          28.08          156.0
    0.2037              -37.97          16.96          77.36          56.71         -19.64         -10.69          14.11          35.42          20.55          28.11          156.0
    0.2223              -37.97          16.95          77.35          56.71         -19.64         -10.68          14.08          35.42          20.54          28.14          156.0
    0.2408              -37.97          16.95          77.34           56.7         -19.63         -10.68          14.05          35.41          20.52          28.18          156.0
    0.2593              -37.97          16.94          77.33           56.7         -19.62         -10.67          14.01          35.41          20.51          28.21          155.9
    0.2778              -37.97          16.93          77.32          56.69         -19.61         -10.66          13.98           35.4          20.49          28.25          155.9
    0.2963              -37.97          16.93           77.3          56.69          -19.6         -10.65          13.94           35.4          20.47          28.29          155.9
    0.3149              -37.97          16.92          77.29          56.68         -19.59         -10.64           13.9          35.39          20.45          28.34          155.9
    0.3334              -37.97          16.91          77.27          56.68         -19.58         -10.63          13.85          35.38          20.43          28.39          155.8
    0.3519              -37.97           16.9          77.25          56.67         -19.57         -10.62           13.8          35.38           20.4          28.44          155.8
    0.3704              -37.97          16.89          77.23          56.66         -19.56         -10.61          13.74          35.37          20.38           28.5          155.7
     0.389              -37.97          16.88          77.21          56.65         -19.55         -10.59          13.68          35.36          20.35          28.57          155.7
    0.4075              -37.97          16.87          77.18          56.64         -19.53         -10.58          13.61          35.35          20.32          28.64          155.7
     0.426              -37.97          16.85          77.15          56.63         -19.51         -10.56          13.54          35.34          20.28          28.72          155.6
    0.4445              -37.97          16.84          77.12          56.62         -19.49         -10.54          13.45          35.33          20.24          28.81          155.6
     0.463              -37.97          16.82          77.09          56.61         -19.47         -10.52          13.36          35.31           20.2          28.91          155.5
    0.4816              -37.97           16.8          77.05          56.59         -19.45         -10.49          13.25           35.3          20.15          29.02          155.4
    0.5001              -37.97          16.78          77.01          56.58         -19.42         -10.47          13.13          35.28          20.09          29.14          155.3
    0.5186              -37.97          16.76          76.96          56.56         -19.39         -10.43           13.0          35.26          20.03          29.28          155.3
    0.5371              -37.97          16.73           76.9          56.53         -19.36          -10.4          12.85          35.24          19.96          29.45          155.2
    0.5557              -37.97           16.7          76.84          56.51         -19.32         -10.36          12.67          35.21          19.87          29.63          155.0
    0.5742              -37.97          16.67          76.76          56.48         -19.27         -10.31          12.47          35.18          19.78          29.84          154.9
